<mxfile host="app.diagrams.net" modified="2023-03-01T21:21:17.846Z" agent="5.0 (Windows NT 10.0; Win64; x64) AppleWebKit/537.36 (KHTML, like Gecko) Chrome/110.0.0.0 Safari/537.36" etag="U9vjRH-RpVr5_anK7Ems" version="20.8.23" type="github">
  <diagram name="Page-1" id="-aEwkYnoBSSh9iiiew5s">
    <mxGraphModel dx="683" dy="360" grid="1" gridSize="10" guides="1" tooltips="1" connect="1" arrows="1" fold="1" page="1" pageScale="1" pageWidth="850" pageHeight="1100" math="0" shadow="0">
      <root>
        <mxCell id="0" />
        <mxCell id="1" parent="0" />
        <mxCell id="MNY5QB3rOqBKM9LWMkKc-1" value="Documents dataset" style="swimlane;whiteSpace=wrap;html=1;" parent="1" vertex="1">
          <mxGeometry x="50" y="80" width="140" height="120" as="geometry" />
        </mxCell>
        <mxCell id="MNY5QB3rOqBKM9LWMkKc-2" value="" style="sketch=0;outlineConnect=0;fontColor=#232F3E;gradientColor=none;fillColor=#232F3D;strokeColor=none;dashed=0;verticalLabelPosition=bottom;verticalAlign=top;align=center;html=1;fontSize=12;fontStyle=0;aspect=fixed;pointerEvents=1;shape=mxgraph.aws4.documents;" parent="MNY5QB3rOqBKM9LWMkKc-1" vertex="1">
          <mxGeometry x="41.5" y="40" width="57" height="69.47" as="geometry" />
        </mxCell>
        <mxCell id="MNY5QB3rOqBKM9LWMkKc-8" value="Pre-Processing Data" style="swimlane;whiteSpace=wrap;html=1;" parent="1" vertex="1">
          <mxGeometry x="245" y="80" width="180" height="190" as="geometry" />
        </mxCell>
        <mxCell id="MNY5QB3rOqBKM9LWMkKc-9" value="Text" style="shape=note;whiteSpace=wrap;html=1;backgroundOutline=1;darkOpacity=0.05;size=8;" parent="MNY5QB3rOqBKM9LWMkKc-8" vertex="1">
          <mxGeometry x="70" y="30" width="40" height="20" as="geometry" />
        </mxCell>
        <mxCell id="MNY5QB3rOqBKM9LWMkKc-11" value="Feature Extraction" style="swimlane;whiteSpace=wrap;html=1;startSize=20;" parent="MNY5QB3rOqBKM9LWMkKc-8" vertex="1">
          <mxGeometry x="25" y="70" width="130" height="60" as="geometry" />
        </mxCell>
        <mxCell id="MNY5QB3rOqBKM9LWMkKc-27" value="" style="html=1;shadow=0;dashed=0;align=center;verticalAlign=middle;shape=mxgraph.arrows2.arrow;dy=0.7;dx=9.23;direction=south;notch=0;" parent="MNY5QB3rOqBKM9LWMkKc-8" vertex="1">
          <mxGeometry x="80" y="50" width="20" height="20" as="geometry" />
        </mxCell>
        <mxCell id="MNY5QB3rOqBKM9LWMkKc-28" value="" style="outlineConnect=0;dashed=0;verticalLabelPosition=bottom;verticalAlign=top;align=center;html=1;shape=mxgraph.aws3.corporate_data_center;fillColor=#7D7C7C;gradientColor=none;" parent="MNY5QB3rOqBKM9LWMkKc-8" vertex="1">
          <mxGeometry x="66.75" y="150" width="46.5" height="30" as="geometry" />
        </mxCell>
        <mxCell id="MNY5QB3rOqBKM9LWMkKc-29" value="&lt;font style=&quot;font-size: 6px;&quot;&gt;&lt;b&gt;Standardized data&lt;/b&gt;&lt;/font&gt;" style="text;html=1;align=center;verticalAlign=middle;resizable=0;points=[];autosize=1;strokeColor=none;fillColor=none;" parent="MNY5QB3rOqBKM9LWMkKc-8" vertex="1">
          <mxGeometry x="50" y="170" width="80" height="30" as="geometry" />
        </mxCell>
        <mxCell id="MNY5QB3rOqBKM9LWMkKc-12" value="&lt;font style=&quot;font-size: 6px;&quot;&gt;&lt;b&gt;1. Tokenizatopn&lt;br&gt;2. Stopwords Removal&lt;br&gt;3.TF-IDF / Word2Vec&lt;/b&gt;&lt;/font&gt;" style="text;html=1;align=center;verticalAlign=middle;resizable=0;points=[];autosize=1;strokeColor=none;fillColor=none;" parent="MNY5QB3rOqBKM9LWMkKc-8" vertex="1">
          <mxGeometry x="45" y="80" width="90" height="60" as="geometry" />
        </mxCell>
        <mxCell id="MNY5QB3rOqBKM9LWMkKc-25" value="" style="html=1;shadow=0;dashed=0;align=center;verticalAlign=middle;shape=mxgraph.arrows2.arrow;dy=0.7;dx=9.23;direction=south;notch=0;" parent="MNY5QB3rOqBKM9LWMkKc-8" vertex="1">
          <mxGeometry x="80" y="130" width="20" height="20" as="geometry" />
        </mxCell>
        <mxCell id="MNY5QB3rOqBKM9LWMkKc-32" value="" style="html=1;shadow=0;dashed=0;align=center;verticalAlign=middle;shape=mxgraph.arrows2.arrow;dy=0.63;dx=21.57;notch=0;fontSize=6;" parent="1" vertex="1">
          <mxGeometry x="200" y="150" width="40" height="30" as="geometry" />
        </mxCell>
      </root>
    </mxGraphModel>
  </diagram>
</mxfile>
